<mxfile host="app.diagrams.net" agent="Mozilla/5.0 (Windows NT 10.0; Win64; x64) AppleWebKit/537.36 (KHTML, like Gecko) Chrome/131.0.0.0 Safari/537.36" version="25.0.3">
  <diagram name="Page-1" id="7KhryxHFdZAswVd5xD74">
    <mxGraphModel dx="2524" dy="738" grid="1" gridSize="10" guides="1" tooltips="1" connect="1" arrows="1" fold="1" page="1" pageScale="1" pageWidth="850" pageHeight="1100" math="0" shadow="0">
      <root>
        <mxCell id="0" />
        <mxCell id="1" parent="0" />
        <mxCell id="geuPRDKl9PWcOQ5PIFQ6-13" style="edgeStyle=orthogonalEdgeStyle;rounded=0;orthogonalLoop=1;jettySize=auto;html=1;entryX=0.5;entryY=0;entryDx=0;entryDy=0;" parent="1" source="geuPRDKl9PWcOQ5PIFQ6-2" target="geuPRDKl9PWcOQ5PIFQ6-3" edge="1">
          <mxGeometry relative="1" as="geometry" />
        </mxCell>
        <mxCell id="geuPRDKl9PWcOQ5PIFQ6-2" value="show form menu :&lt;div&gt;select car&lt;br&gt;&lt;div&gt;input name&lt;/div&gt;&lt;div&gt;New Game&lt;/div&gt;&lt;div&gt;Exit&lt;/div&gt;&lt;/div&gt;" style="rounded=0;whiteSpace=wrap;html=1;" parent="1" vertex="1">
          <mxGeometry x="358" y="130" width="135" height="80" as="geometry" />
        </mxCell>
        <mxCell id="geuPRDKl9PWcOQ5PIFQ6-14" style="edgeStyle=orthogonalEdgeStyle;rounded=0;orthogonalLoop=1;jettySize=auto;html=1;exitX=1;exitY=0.5;exitDx=0;exitDy=0;entryX=0;entryY=0.5;entryDx=0;entryDy=0;" parent="1" source="geuPRDKl9PWcOQ5PIFQ6-3" target="geuPRDKl9PWcOQ5PIFQ6-6" edge="1">
          <mxGeometry relative="1" as="geometry" />
        </mxCell>
        <mxCell id="geuPRDKl9PWcOQ5PIFQ6-15" style="edgeStyle=orthogonalEdgeStyle;rounded=0;orthogonalLoop=1;jettySize=auto;html=1;exitX=0.5;exitY=1;exitDx=0;exitDy=0;entryX=0.5;entryY=0;entryDx=0;entryDy=0;" parent="1" source="geuPRDKl9PWcOQ5PIFQ6-3" target="geuPRDKl9PWcOQ5PIFQ6-8" edge="1">
          <mxGeometry relative="1" as="geometry" />
        </mxCell>
        <mxCell id="geuPRDKl9PWcOQ5PIFQ6-3" value="" style="rhombus;whiteSpace=wrap;html=1;" parent="1" vertex="1">
          <mxGeometry x="385" y="280" width="80" height="80" as="geometry" />
        </mxCell>
        <mxCell id="geuPRDKl9PWcOQ5PIFQ6-4" value="Skema Project" style="text;html=1;align=center;verticalAlign=middle;resizable=0;points=[];autosize=1;strokeColor=none;fillColor=none;" parent="1" vertex="1">
          <mxGeometry x="375.5" y="40" width="100" height="30" as="geometry" />
        </mxCell>
        <mxCell id="geuPRDKl9PWcOQ5PIFQ6-5" value="Exit" style="text;html=1;align=center;verticalAlign=middle;resizable=0;points=[];autosize=1;strokeColor=none;fillColor=none;" parent="1" vertex="1">
          <mxGeometry x="485" y="290" width="40" height="30" as="geometry" />
        </mxCell>
        <mxCell id="geuPRDKl9PWcOQ5PIFQ6-6" value="Close game" style="rounded=0;whiteSpace=wrap;html=1;" parent="1" vertex="1">
          <mxGeometry x="550" y="290" width="120" height="60" as="geometry" />
        </mxCell>
        <mxCell id="geuPRDKl9PWcOQ5PIFQ6-7" value="new game" style="text;html=1;align=center;verticalAlign=middle;resizable=0;points=[];autosize=1;strokeColor=none;fillColor=none;" parent="1" vertex="1">
          <mxGeometry x="345" y="380" width="80" height="30" as="geometry" />
        </mxCell>
        <mxCell id="geuPRDKl9PWcOQ5PIFQ6-16" style="edgeStyle=orthogonalEdgeStyle;rounded=0;orthogonalLoop=1;jettySize=auto;html=1;exitX=1;exitY=0.5;exitDx=0;exitDy=0;entryX=0;entryY=0.5;entryDx=0;entryDy=0;" parent="1" source="geuPRDKl9PWcOQ5PIFQ6-8" target="geuPRDKl9PWcOQ5PIFQ6-9" edge="1">
          <mxGeometry relative="1" as="geometry" />
        </mxCell>
        <mxCell id="geuPRDKl9PWcOQ5PIFQ6-17" style="edgeStyle=orthogonalEdgeStyle;rounded=0;orthogonalLoop=1;jettySize=auto;html=1;exitX=0.5;exitY=1;exitDx=0;exitDy=0;entryX=0.5;entryY=0;entryDx=0;entryDy=0;" parent="1" source="geuPRDKl9PWcOQ5PIFQ6-8" target="geuPRDKl9PWcOQ5PIFQ6-12" edge="1">
          <mxGeometry relative="1" as="geometry" />
        </mxCell>
        <mxCell id="geuPRDKl9PWcOQ5PIFQ6-8" value="" style="rhombus;whiteSpace=wrap;html=1;" parent="1" vertex="1">
          <mxGeometry x="385" y="430" width="80" height="80" as="geometry" />
        </mxCell>
        <mxCell id="geuPRDKl9PWcOQ5PIFQ6-9" value="muncul warning&lt;div&gt;nama player harus diisi&lt;/div&gt;" style="rounded=0;whiteSpace=wrap;html=1;" parent="1" vertex="1">
          <mxGeometry x="580" y="440" width="120" height="60" as="geometry" />
        </mxCell>
        <mxCell id="geuPRDKl9PWcOQ5PIFQ6-10" value="nama kosong" style="text;html=1;align=center;verticalAlign=middle;resizable=0;points=[];autosize=1;strokeColor=none;fillColor=none;" parent="1" vertex="1">
          <mxGeometry x="465" y="440" width="100" height="30" as="geometry" />
        </mxCell>
        <mxCell id="geuPRDKl9PWcOQ5PIFQ6-11" value="nama diisi" style="text;html=1;align=center;verticalAlign=middle;resizable=0;points=[];autosize=1;strokeColor=none;fillColor=none;" parent="1" vertex="1">
          <mxGeometry x="340" y="520" width="80" height="30" as="geometry" />
        </mxCell>
        <mxCell id="geuPRDKl9PWcOQ5PIFQ6-24" style="edgeStyle=orthogonalEdgeStyle;rounded=0;orthogonalLoop=1;jettySize=auto;html=1;exitX=0.5;exitY=1;exitDx=0;exitDy=0;entryX=0.5;entryY=0;entryDx=0;entryDy=0;" parent="1" source="geuPRDKl9PWcOQ5PIFQ6-12" target="geuPRDKl9PWcOQ5PIFQ6-19" edge="1">
          <mxGeometry relative="1" as="geometry" />
        </mxCell>
        <mxCell id="geuPRDKl9PWcOQ5PIFQ6-12" value="open form game" style="rounded=0;whiteSpace=wrap;html=1;" parent="1" vertex="1">
          <mxGeometry x="365" y="570" width="120" height="60" as="geometry" />
        </mxCell>
        <mxCell id="geuPRDKl9PWcOQ5PIFQ6-25" style="edgeStyle=orthogonalEdgeStyle;rounded=0;orthogonalLoop=1;jettySize=auto;html=1;entryX=0.5;entryY=0;entryDx=0;entryDy=0;" parent="1" source="geuPRDKl9PWcOQ5PIFQ6-19" target="geuPRDKl9PWcOQ5PIFQ6-20" edge="1">
          <mxGeometry relative="1" as="geometry" />
        </mxCell>
        <mxCell id="geuPRDKl9PWcOQ5PIFQ6-19" value="Start&lt;div&gt;pause/resume&lt;/div&gt;&lt;div&gt;reset&lt;/div&gt;&lt;div&gt;back to menu&lt;/div&gt;" style="shape=parallelogram;perimeter=parallelogramPerimeter;whiteSpace=wrap;html=1;fixedSize=1;" parent="1" vertex="1">
          <mxGeometry x="356" y="690" width="138" height="70" as="geometry" />
        </mxCell>
        <mxCell id="geuPRDKl9PWcOQ5PIFQ6-23" style="edgeStyle=orthogonalEdgeStyle;rounded=0;orthogonalLoop=1;jettySize=auto;html=1;exitX=0;exitY=0.5;exitDx=0;exitDy=0;entryX=0;entryY=0.5;entryDx=0;entryDy=0;" parent="1" source="geuPRDKl9PWcOQ5PIFQ6-20" target="geuPRDKl9PWcOQ5PIFQ6-2" edge="1">
          <mxGeometry relative="1" as="geometry">
            <Array as="points">
              <mxPoint x="280" y="858" />
              <mxPoint x="280" y="170" />
            </Array>
          </mxGeometry>
        </mxCell>
        <mxCell id="geuPRDKl9PWcOQ5PIFQ6-20" value="" style="rhombus;whiteSpace=wrap;html=1;" parent="1" vertex="1">
          <mxGeometry x="385" y="818" width="80" height="80" as="geometry" />
        </mxCell>
        <mxCell id="geuPRDKl9PWcOQ5PIFQ6-22" value="back to menu" style="text;html=1;align=center;verticalAlign=middle;resizable=0;points=[];autosize=1;strokeColor=none;fillColor=none;" parent="1" vertex="1">
          <mxGeometry x="285" y="830" width="100" height="30" as="geometry" />
        </mxCell>
        <mxCell id="geuPRDKl9PWcOQ5PIFQ6-26" value="" style="rounded=0;whiteSpace=wrap;html=1;" parent="1" vertex="1">
          <mxGeometry x="160" y="1170" width="580" height="960" as="geometry" />
        </mxCell>
        <mxCell id="geuPRDKl9PWcOQ5PIFQ6-29" value="design menu" style="text;html=1;align=center;verticalAlign=middle;resizable=0;points=[];autosize=1;strokeColor=none;fillColor=none;" parent="1" vertex="1">
          <mxGeometry x="390.5" y="1120" width="90" height="30" as="geometry" />
        </mxCell>
        <mxCell id="geuPRDKl9PWcOQ5PIFQ6-30" value="judul game" style="rounded=1;whiteSpace=wrap;html=1;" parent="1" vertex="1">
          <mxGeometry x="295" y="1210" width="305" height="80" as="geometry" />
        </mxCell>
        <mxCell id="geuPRDKl9PWcOQ5PIFQ6-31" value="" style="triangle;whiteSpace=wrap;html=1;" parent="1" vertex="1">
          <mxGeometry x="640" y="1440" width="60" height="80" as="geometry" />
        </mxCell>
        <mxCell id="geuPRDKl9PWcOQ5PIFQ6-32" value="" style="triangle;whiteSpace=wrap;html=1;rotation=-180;" parent="1" vertex="1">
          <mxGeometry x="200" y="1440" width="60" height="80" as="geometry" />
        </mxCell>
        <mxCell id="geuPRDKl9PWcOQ5PIFQ6-33" value="gambar mobil" style="rounded=1;whiteSpace=wrap;html=1;" parent="1" vertex="1">
          <mxGeometry x="327.25" y="1370" width="246.5" height="200" as="geometry" />
        </mxCell>
        <mxCell id="geuPRDKl9PWcOQ5PIFQ6-34" value="input player name" style="rounded=1;whiteSpace=wrap;html=1;" parent="1" vertex="1">
          <mxGeometry x="292.5" y="1660" width="310" height="60" as="geometry" />
        </mxCell>
        <mxCell id="geuPRDKl9PWcOQ5PIFQ6-35" value="new game" style="rounded=1;whiteSpace=wrap;html=1;" parent="1" vertex="1">
          <mxGeometry x="374.5" y="1770" width="146" height="60" as="geometry" />
        </mxCell>
        <mxCell id="geuPRDKl9PWcOQ5PIFQ6-36" value="exit" style="rounded=1;whiteSpace=wrap;html=1;" parent="1" vertex="1">
          <mxGeometry x="375" y="1850" width="145" height="60" as="geometry" />
        </mxCell>
        <mxCell id="geuPRDKl9PWcOQ5PIFQ6-37" value="name car" style="rounded=0;whiteSpace=wrap;html=1;" parent="1" vertex="1">
          <mxGeometry x="380.5" y="1590" width="140" height="30" as="geometry" />
        </mxCell>
        <mxCell id="geuPRDKl9PWcOQ5PIFQ6-38" value="choose your car" style="rounded=0;whiteSpace=wrap;html=1;" parent="1" vertex="1">
          <mxGeometry x="330" y="1330" width="240" height="30" as="geometry" />
        </mxCell>
        <mxCell id="geuPRDKl9PWcOQ5PIFQ6-39" value="" style="rounded=0;whiteSpace=wrap;html=1;" parent="1" vertex="1">
          <mxGeometry x="147.5" y="2262" width="580" height="998" as="geometry" />
        </mxCell>
        <mxCell id="geuPRDKl9PWcOQ5PIFQ6-40" value="design game" style="text;html=1;align=center;verticalAlign=middle;resizable=0;points=[];autosize=1;strokeColor=none;fillColor=none;" parent="1" vertex="1">
          <mxGeometry x="387.5" y="2220" width="90" height="30" as="geometry" />
        </mxCell>
        <mxCell id="geuPRDKl9PWcOQ5PIFQ6-43" value="score" style="rounded=0;whiteSpace=wrap;html=1;" parent="1" vertex="1">
          <mxGeometry x="370.5" y="2930" width="154.5" height="30" as="geometry" />
        </mxCell>
        <mxCell id="geuPRDKl9PWcOQ5PIFQ6-44" value="game" style="rounded=0;whiteSpace=wrap;html=1;" parent="1" vertex="1">
          <mxGeometry x="187.5" y="2302" width="500" height="608" as="geometry" />
        </mxCell>
        <mxCell id="geuPRDKl9PWcOQ5PIFQ6-45" value="start/pause/resume" style="rounded=1;whiteSpace=wrap;html=1;" parent="1" vertex="1">
          <mxGeometry x="358" y="2980" width="180" height="60" as="geometry" />
        </mxCell>
        <mxCell id="geuPRDKl9PWcOQ5PIFQ6-47" value="reset" style="rounded=1;whiteSpace=wrap;html=1;" parent="1" vertex="1">
          <mxGeometry x="360" y="3060" width="180" height="60" as="geometry" />
        </mxCell>
        <mxCell id="geuPRDKl9PWcOQ5PIFQ6-48" value="back to menu" style="rounded=1;whiteSpace=wrap;html=1;" parent="1" vertex="1">
          <mxGeometry x="360" y="3140" width="180" height="60" as="geometry" />
        </mxCell>
        <mxCell id="A9OIRRmDnFpJW0OIB3sf-14" style="edgeStyle=orthogonalEdgeStyle;rounded=0;orthogonalLoop=1;jettySize=auto;html=1;entryX=0.5;entryY=0;entryDx=0;entryDy=0;" edge="1" parent="1" source="A9OIRRmDnFpJW0OIB3sf-1" target="A9OIRRmDnFpJW0OIB3sf-8">
          <mxGeometry relative="1" as="geometry" />
        </mxCell>
        <mxCell id="A9OIRRmDnFpJW0OIB3sf-1" value="Start" style="ellipse;whiteSpace=wrap;html=1;" vertex="1" parent="1">
          <mxGeometry x="-520" y="110" width="120" height="60" as="geometry" />
        </mxCell>
        <mxCell id="A9OIRRmDnFpJW0OIB3sf-2" value="Skema Project" style="text;html=1;align=center;verticalAlign=middle;resizable=0;points=[];autosize=1;strokeColor=none;fillColor=none;" vertex="1" parent="1">
          <mxGeometry x="-510" y="20" width="100" height="30" as="geometry" />
        </mxCell>
        <mxCell id="A9OIRRmDnFpJW0OIB3sf-15" style="edgeStyle=orthogonalEdgeStyle;rounded=0;orthogonalLoop=1;jettySize=auto;html=1;exitX=0.5;exitY=1;exitDx=0;exitDy=0;entryX=0.5;entryY=0;entryDx=0;entryDy=0;" edge="1" parent="1" source="A9OIRRmDnFpJW0OIB3sf-8" target="A9OIRRmDnFpJW0OIB3sf-9">
          <mxGeometry relative="1" as="geometry" />
        </mxCell>
        <mxCell id="A9OIRRmDnFpJW0OIB3sf-8" value="show page menu" style="rounded=0;whiteSpace=wrap;html=1;" vertex="1" parent="1">
          <mxGeometry x="-520" y="220" width="120" height="60" as="geometry" />
        </mxCell>
        <mxCell id="A9OIRRmDnFpJW0OIB3sf-9" value="Menu" style="swimlane;fontStyle=0;childLayout=stackLayout;horizontal=1;startSize=30;horizontalStack=0;resizeParent=1;resizeParentMax=0;resizeLast=0;collapsible=1;marginBottom=0;whiteSpace=wrap;html=1;" vertex="1" parent="1">
          <mxGeometry x="-550" y="320" width="180" height="120" as="geometry" />
        </mxCell>
        <mxCell id="A9OIRRmDnFpJW0OIB3sf-10" value="choose car" style="text;strokeColor=none;fillColor=none;align=left;verticalAlign=middle;spacingLeft=4;spacingRight=4;overflow=hidden;points=[[0,0.5],[1,0.5]];portConstraint=eastwest;rotatable=0;whiteSpace=wrap;html=1;" vertex="1" parent="A9OIRRmDnFpJW0OIB3sf-9">
          <mxGeometry y="30" width="180" height="30" as="geometry" />
        </mxCell>
        <mxCell id="A9OIRRmDnFpJW0OIB3sf-11" value="Start" style="text;strokeColor=none;fillColor=none;align=left;verticalAlign=middle;spacingLeft=4;spacingRight=4;overflow=hidden;points=[[0,0.5],[1,0.5]];portConstraint=eastwest;rotatable=0;whiteSpace=wrap;html=1;" vertex="1" parent="A9OIRRmDnFpJW0OIB3sf-9">
          <mxGeometry y="60" width="180" height="30" as="geometry" />
        </mxCell>
        <mxCell id="A9OIRRmDnFpJW0OIB3sf-12" value="Exit" style="text;strokeColor=none;fillColor=none;align=left;verticalAlign=middle;spacingLeft=4;spacingRight=4;overflow=hidden;points=[[0,0.5],[1,0.5]];portConstraint=eastwest;rotatable=0;whiteSpace=wrap;html=1;" vertex="1" parent="A9OIRRmDnFpJW0OIB3sf-9">
          <mxGeometry y="90" width="180" height="30" as="geometry" />
        </mxCell>
        <mxCell id="A9OIRRmDnFpJW0OIB3sf-17" value="Close game" style="rounded=0;whiteSpace=wrap;html=1;" vertex="1" parent="1">
          <mxGeometry x="-320" y="395" width="120" height="60" as="geometry" />
        </mxCell>
        <mxCell id="A9OIRRmDnFpJW0OIB3sf-18" style="edgeStyle=orthogonalEdgeStyle;rounded=0;orthogonalLoop=1;jettySize=auto;html=1;entryX=0;entryY=0.5;entryDx=0;entryDy=0;" edge="1" parent="1" source="A9OIRRmDnFpJW0OIB3sf-12" target="A9OIRRmDnFpJW0OIB3sf-17">
          <mxGeometry relative="1" as="geometry" />
        </mxCell>
        <mxCell id="A9OIRRmDnFpJW0OIB3sf-24" style="edgeStyle=orthogonalEdgeStyle;rounded=0;orthogonalLoop=1;jettySize=auto;html=1;entryX=0;entryY=0.5;entryDx=0;entryDy=0;" edge="1" parent="1" source="A9OIRRmDnFpJW0OIB3sf-19" target="A9OIRRmDnFpJW0OIB3sf-23">
          <mxGeometry relative="1" as="geometry" />
        </mxCell>
        <mxCell id="A9OIRRmDnFpJW0OIB3sf-26" style="edgeStyle=orthogonalEdgeStyle;rounded=0;orthogonalLoop=1;jettySize=auto;html=1;entryX=0.5;entryY=0;entryDx=0;entryDy=0;" edge="1" parent="1" source="A9OIRRmDnFpJW0OIB3sf-19" target="A9OIRRmDnFpJW0OIB3sf-25">
          <mxGeometry relative="1" as="geometry" />
        </mxCell>
        <mxCell id="A9OIRRmDnFpJW0OIB3sf-19" value="input nama" style="rhombus;whiteSpace=wrap;html=1;" vertex="1" parent="1">
          <mxGeometry x="-700" y="470" width="80" height="80" as="geometry" />
        </mxCell>
        <mxCell id="A9OIRRmDnFpJW0OIB3sf-20" style="edgeStyle=orthogonalEdgeStyle;rounded=0;orthogonalLoop=1;jettySize=auto;html=1;entryX=0.5;entryY=0;entryDx=0;entryDy=0;" edge="1" parent="1" source="A9OIRRmDnFpJW0OIB3sf-11" target="A9OIRRmDnFpJW0OIB3sf-19">
          <mxGeometry relative="1" as="geometry" />
        </mxCell>
        <mxCell id="A9OIRRmDnFpJW0OIB3sf-21" value="nama kosong" style="text;html=1;align=center;verticalAlign=middle;resizable=0;points=[];autosize=1;strokeColor=none;fillColor=none;" vertex="1" parent="1">
          <mxGeometry x="-620" y="470" width="100" height="30" as="geometry" />
        </mxCell>
        <mxCell id="A9OIRRmDnFpJW0OIB3sf-22" value="nama diisi" style="text;html=1;align=center;verticalAlign=middle;resizable=0;points=[];autosize=1;strokeColor=none;fillColor=none;" vertex="1" parent="1">
          <mxGeometry x="-740" y="560" width="80" height="30" as="geometry" />
        </mxCell>
        <mxCell id="A9OIRRmDnFpJW0OIB3sf-23" value="show warning" style="rounded=0;whiteSpace=wrap;html=1;" vertex="1" parent="1">
          <mxGeometry x="-510" y="480" width="120" height="60" as="geometry" />
        </mxCell>
        <mxCell id="A9OIRRmDnFpJW0OIB3sf-28" style="edgeStyle=orthogonalEdgeStyle;rounded=0;orthogonalLoop=1;jettySize=auto;html=1;entryX=0;entryY=0.5;entryDx=0;entryDy=0;" edge="1" parent="1" source="A9OIRRmDnFpJW0OIB3sf-25" target="A9OIRRmDnFpJW0OIB3sf-27">
          <mxGeometry relative="1" as="geometry" />
        </mxCell>
        <mxCell id="A9OIRRmDnFpJW0OIB3sf-25" value="open page level" style="rounded=0;whiteSpace=wrap;html=1;" vertex="1" parent="1">
          <mxGeometry x="-720" y="610" width="120" height="60" as="geometry" />
        </mxCell>
        <mxCell id="A9OIRRmDnFpJW0OIB3sf-30" style="edgeStyle=orthogonalEdgeStyle;rounded=0;orthogonalLoop=1;jettySize=auto;html=1;entryX=0.5;entryY=0;entryDx=0;entryDy=0;" edge="1" parent="1" source="A9OIRRmDnFpJW0OIB3sf-27" target="A9OIRRmDnFpJW0OIB3sf-29">
          <mxGeometry relative="1" as="geometry" />
        </mxCell>
        <mxCell id="A9OIRRmDnFpJW0OIB3sf-27" value="pilih level" style="rounded=0;whiteSpace=wrap;html=1;" vertex="1" parent="1">
          <mxGeometry x="-520" y="610" width="120" height="60" as="geometry" />
        </mxCell>
        <mxCell id="A9OIRRmDnFpJW0OIB3sf-35" style="edgeStyle=orthogonalEdgeStyle;rounded=0;orthogonalLoop=1;jettySize=auto;html=1;entryX=0.5;entryY=0;entryDx=0;entryDy=0;" edge="1" parent="1" source="A9OIRRmDnFpJW0OIB3sf-29" target="A9OIRRmDnFpJW0OIB3sf-31">
          <mxGeometry relative="1" as="geometry" />
        </mxCell>
        <mxCell id="A9OIRRmDnFpJW0OIB3sf-29" value="open page game" style="rounded=0;whiteSpace=wrap;html=1;" vertex="1" parent="1">
          <mxGeometry x="-520" y="740" width="120" height="60" as="geometry" />
        </mxCell>
        <mxCell id="A9OIRRmDnFpJW0OIB3sf-31" value="game" style="swimlane;fontStyle=0;childLayout=stackLayout;horizontal=1;startSize=30;horizontalStack=0;resizeParent=1;resizeParentMax=0;resizeLast=0;collapsible=1;marginBottom=0;whiteSpace=wrap;html=1;" vertex="1" parent="1">
          <mxGeometry x="-530" y="860" width="140" height="120" as="geometry">
            <mxRectangle x="-520" y="850" width="70" height="30" as="alternateBounds" />
          </mxGeometry>
        </mxCell>
        <mxCell id="A9OIRRmDnFpJW0OIB3sf-32" value="start/pause/menu" style="text;strokeColor=none;fillColor=none;align=left;verticalAlign=middle;spacingLeft=4;spacingRight=4;overflow=hidden;points=[[0,0.5],[1,0.5]];portConstraint=eastwest;rotatable=0;whiteSpace=wrap;html=1;" vertex="1" parent="A9OIRRmDnFpJW0OIB3sf-31">
          <mxGeometry y="30" width="140" height="30" as="geometry" />
        </mxCell>
        <mxCell id="A9OIRRmDnFpJW0OIB3sf-33" value="back to menu" style="text;strokeColor=none;fillColor=none;align=left;verticalAlign=middle;spacingLeft=4;spacingRight=4;overflow=hidden;points=[[0,0.5],[1,0.5]];portConstraint=eastwest;rotatable=0;whiteSpace=wrap;html=1;" vertex="1" parent="A9OIRRmDnFpJW0OIB3sf-31">
          <mxGeometry y="60" width="140" height="30" as="geometry" />
        </mxCell>
        <mxCell id="A9OIRRmDnFpJW0OIB3sf-34" value="Item 3" style="text;strokeColor=none;fillColor=none;align=left;verticalAlign=middle;spacingLeft=4;spacingRight=4;overflow=hidden;points=[[0,0.5],[1,0.5]];portConstraint=eastwest;rotatable=0;whiteSpace=wrap;html=1;" vertex="1" parent="A9OIRRmDnFpJW0OIB3sf-31">
          <mxGeometry y="90" width="140" height="30" as="geometry" />
        </mxCell>
        <mxCell id="A9OIRRmDnFpJW0OIB3sf-36" style="edgeStyle=orthogonalEdgeStyle;rounded=0;orthogonalLoop=1;jettySize=auto;html=1;entryX=1;entryY=0.5;entryDx=0;entryDy=0;" edge="1" parent="1" source="A9OIRRmDnFpJW0OIB3sf-33" target="A9OIRRmDnFpJW0OIB3sf-8">
          <mxGeometry relative="1" as="geometry">
            <Array as="points">
              <mxPoint x="-180" y="935" />
              <mxPoint x="-180" y="250" />
            </Array>
          </mxGeometry>
        </mxCell>
        <mxCell id="A9OIRRmDnFpJW0OIB3sf-50" style="edgeStyle=orthogonalEdgeStyle;rounded=0;orthogonalLoop=1;jettySize=auto;html=1;entryX=0;entryY=0.5;entryDx=0;entryDy=0;" edge="1" parent="1" source="A9OIRRmDnFpJW0OIB3sf-37" target="A9OIRRmDnFpJW0OIB3sf-40">
          <mxGeometry relative="1" as="geometry" />
        </mxCell>
        <mxCell id="A9OIRRmDnFpJW0OIB3sf-51" style="edgeStyle=orthogonalEdgeStyle;rounded=0;orthogonalLoop=1;jettySize=auto;html=1;entryX=0.5;entryY=0;entryDx=0;entryDy=0;" edge="1" parent="1" source="A9OIRRmDnFpJW0OIB3sf-37" target="A9OIRRmDnFpJW0OIB3sf-42">
          <mxGeometry relative="1" as="geometry" />
        </mxCell>
        <mxCell id="A9OIRRmDnFpJW0OIB3sf-37" value="" style="rhombus;whiteSpace=wrap;html=1;" vertex="1" parent="1">
          <mxGeometry x="-720" y="1010" width="80" height="80" as="geometry" />
        </mxCell>
        <mxCell id="A9OIRRmDnFpJW0OIB3sf-38" value="gameover" style="text;html=1;align=center;verticalAlign=middle;resizable=0;points=[];autosize=1;strokeColor=none;fillColor=none;" vertex="1" parent="1">
          <mxGeometry x="-640" y="1010" width="80" height="30" as="geometry" />
        </mxCell>
        <mxCell id="A9OIRRmDnFpJW0OIB3sf-40" value="ulangi level" style="rounded=0;whiteSpace=wrap;html=1;" vertex="1" parent="1">
          <mxGeometry x="-540" y="1020" width="120" height="60" as="geometry" />
        </mxCell>
        <mxCell id="A9OIRRmDnFpJW0OIB3sf-41" value="finish" style="text;html=1;align=center;verticalAlign=middle;resizable=0;points=[];autosize=1;strokeColor=none;fillColor=none;" vertex="1" parent="1">
          <mxGeometry x="-745" y="1108" width="50" height="30" as="geometry" />
        </mxCell>
        <mxCell id="A9OIRRmDnFpJW0OIB3sf-55" style="edgeStyle=orthogonalEdgeStyle;rounded=0;orthogonalLoop=1;jettySize=auto;html=1;entryX=0;entryY=0.25;entryDx=0;entryDy=0;" edge="1" parent="1" source="A9OIRRmDnFpJW0OIB3sf-42" target="A9OIRRmDnFpJW0OIB3sf-44">
          <mxGeometry relative="1" as="geometry" />
        </mxCell>
        <mxCell id="A9OIRRmDnFpJW0OIB3sf-42" value="show page next level" style="rounded=0;whiteSpace=wrap;html=1;" vertex="1" parent="1">
          <mxGeometry x="-695" y="1150" width="120" height="60" as="geometry" />
        </mxCell>
        <mxCell id="A9OIRRmDnFpJW0OIB3sf-44" value="next level" style="swimlane;fontStyle=0;childLayout=stackLayout;horizontal=1;startSize=30;horizontalStack=0;resizeParent=1;resizeParentMax=0;resizeLast=0;collapsible=1;marginBottom=0;whiteSpace=wrap;html=1;" vertex="1" parent="1">
          <mxGeometry x="-500" y="1160" width="140" height="120" as="geometry" />
        </mxCell>
        <mxCell id="A9OIRRmDnFpJW0OIB3sf-45" value="next" style="text;strokeColor=none;fillColor=none;align=left;verticalAlign=middle;spacingLeft=4;spacingRight=4;overflow=hidden;points=[[0,0.5],[1,0.5]];portConstraint=eastwest;rotatable=0;whiteSpace=wrap;html=1;" vertex="1" parent="A9OIRRmDnFpJW0OIB3sf-44">
          <mxGeometry y="30" width="140" height="30" as="geometry" />
        </mxCell>
        <mxCell id="A9OIRRmDnFpJW0OIB3sf-46" value="ulangi" style="text;strokeColor=none;fillColor=none;align=left;verticalAlign=middle;spacingLeft=4;spacingRight=4;overflow=hidden;points=[[0,0.5],[1,0.5]];portConstraint=eastwest;rotatable=0;whiteSpace=wrap;html=1;" vertex="1" parent="A9OIRRmDnFpJW0OIB3sf-44">
          <mxGeometry y="60" width="140" height="30" as="geometry" />
        </mxCell>
        <mxCell id="A9OIRRmDnFpJW0OIB3sf-47" value="back to menu" style="text;strokeColor=none;fillColor=none;align=left;verticalAlign=middle;spacingLeft=4;spacingRight=4;overflow=hidden;points=[[0,0.5],[1,0.5]];portConstraint=eastwest;rotatable=0;whiteSpace=wrap;html=1;" vertex="1" parent="A9OIRRmDnFpJW0OIB3sf-44">
          <mxGeometry y="90" width="140" height="30" as="geometry" />
        </mxCell>
        <mxCell id="A9OIRRmDnFpJW0OIB3sf-48" style="edgeStyle=orthogonalEdgeStyle;rounded=0;orthogonalLoop=1;jettySize=auto;html=1;entryX=1;entryY=0.5;entryDx=0;entryDy=0;" edge="1" parent="1" source="A9OIRRmDnFpJW0OIB3sf-47" target="A9OIRRmDnFpJW0OIB3sf-8">
          <mxGeometry relative="1" as="geometry">
            <Array as="points">
              <mxPoint x="-180" y="1265" />
              <mxPoint x="-180" y="250" />
            </Array>
          </mxGeometry>
        </mxCell>
        <mxCell id="A9OIRRmDnFpJW0OIB3sf-49" style="edgeStyle=orthogonalEdgeStyle;rounded=0;orthogonalLoop=1;jettySize=auto;html=1;entryX=0.5;entryY=0;entryDx=0;entryDy=0;" edge="1" parent="1" source="A9OIRRmDnFpJW0OIB3sf-32" target="A9OIRRmDnFpJW0OIB3sf-37">
          <mxGeometry relative="1" as="geometry" />
        </mxCell>
        <mxCell id="A9OIRRmDnFpJW0OIB3sf-53" style="edgeStyle=orthogonalEdgeStyle;rounded=0;orthogonalLoop=1;jettySize=auto;html=1;entryX=1;entryY=0.5;entryDx=0;entryDy=0;" edge="1" parent="1" source="A9OIRRmDnFpJW0OIB3sf-46" target="A9OIRRmDnFpJW0OIB3sf-40">
          <mxGeometry relative="1" as="geometry">
            <Array as="points">
              <mxPoint x="-320" y="1235" />
              <mxPoint x="-320" y="1050" />
            </Array>
          </mxGeometry>
        </mxCell>
        <mxCell id="A9OIRRmDnFpJW0OIB3sf-54" style="edgeStyle=orthogonalEdgeStyle;rounded=0;orthogonalLoop=1;jettySize=auto;html=1;entryX=0;entryY=0.25;entryDx=0;entryDy=0;exitX=0;exitY=0.5;exitDx=0;exitDy=0;" edge="1" parent="1" source="A9OIRRmDnFpJW0OIB3sf-45" target="A9OIRRmDnFpJW0OIB3sf-31">
          <mxGeometry relative="1" as="geometry">
            <Array as="points">
              <mxPoint x="-540" y="1205" />
              <mxPoint x="-540" y="1220" />
              <mxPoint x="-740" y="1220" />
              <mxPoint x="-740" y="890" />
            </Array>
          </mxGeometry>
        </mxCell>
      </root>
    </mxGraphModel>
  </diagram>
</mxfile>
